# xmcd CD database file
# Copyright (C) 1997 Ti Kan
# 
# Track frame offsets:
#     150
#     2032
#     14852
#     16135
#     32925
#     53640
#     71090
#     92495
#     99965
#     121365
#     123407
#     133677
#     153252
#     158675
#     177577
#     183295
#     202930
#     220647
#     239825
#     268410
# 
# Disc length: 3866 seconds
# 
# Revision: 1
# Processed by: cddbd v1.4b41PL1 Copyright (c) Steve Scherf et al.
# Submitted via: DiscPlay 4.0.4
# 
DISCID=150f1814
DTITLE=Force 1 Network - The M M E Program
DYEAR=1900
DGENRE=
TTITLE0=Introduction
TTITLE1=Force One Theme
TTITLE2=Force One Sign On
TTITLE3=Sista Sista
TTITLE4=Love Vapors
TTITLE5=Pick 'N' Choose
TTITLE6=Somethin' About You
TTITLE7=Miss You
TTITLE8=Another Night
TTITLE9=What About the Children
TTITLE10=Big Brutha's Theme
TTITLE11=Back 'N' the Dayz
TTITLE12=Network Shouts
TTITLE13=One Drag
TTITLE14=Is It Wet?
TTITLE15=Knock A Lot
TTITLE16=E.W.T.B.B. (Part 1)
TTITLE17=Losing You
TTITLE18=Insecurity
TTITLE19=Spirit
EXTD=
EXTT0=
EXTT1=
EXTT2=
EXTT3=
EXTT4=
EXTT5=
EXTT6=
EXTT7=
EXTT8=
EXTT9=
EXTT10=
EXTT11=
EXTT12=
EXTT13=
EXTT14=
EXTT15=
EXTT16=
EXTT17=
EXTT18=
EXTT19=
PLAYORDER=
